<svg xmlns="http://www.w3.org/2000/svg" viewBox="0 0 960 700" width="960" height="700" role="img" aria-label="Plan"><rect width="960" height="700" fill="#ffffff"/><text x="32" y="28" font-size="16" font-family="Georgia,serif" fill="#1b1b1b">Plan</text><text x="32" y="46" font-size="11" fill="#7a7a7a">Gemini mine (enargite specimen) — workings digitised from a written description, not a survey</text><rect x="475.5" y="345.5" width="9" height="9" fill="none" stroke="#ff5050" stroke-width="2.2" stroke-dasharray="10 5"/><rect x="475.5" y="345.5" width="9" height="9" fill="none" stroke="#ff5050" stroke-width="2.2" stroke-dasharray="10 5"/><rect x="475.5" y="345.5" width="9" height="9" fill="none" stroke="#ff5050" stroke-width="2.2" stroke-dasharray="10 5"/><rect x="475.5" y="345.5" width="9" height="9" fill="none" stroke="#ff5050" stroke-width="2.2" stroke-dasharray="10 5"/><g class="assays"><circle cx="479.99" cy="350.01" r="4" fill="#b8860b" stroke="#b8860b" stroke-width="1.4"/><text x="486.99" y="353.01" font-size="9" fill="#b8860b">10 PB</text><circle cx="479.99" cy="350.01" r="4" fill="#b8860b" stroke="#b8860b" stroke-width="1.4"/><text x="486.99" y="353.01" font-size="9" fill="#b8860b">40 AG</text></g><text x="485" y="345" font-size="10" fill="#1b1b1b">Gemini</text><text x="485" y="332" font-size="10" fill="#1b1b1b">shaft</text><text x="485" y="319" font-size="10" fill="#1b1b1b">shaft</text><text x="485" y="306" font-size="10" fill="#1b1b1b">shaft</text><g class="north"><path d="M 904 40 L 897 62 L 911 62 Z" fill="#1b1b1b"/><text x="904" y="76" font-size="11" text-anchor="middle" fill="#1b1b1b">N</text></g><g class="scale"><line x1="32" y1="676" x2="179" y2="676" stroke="#1b1b1b" stroke-width="2"/><line x1="32" y1="672" x2="32" y2="680" stroke="#1b1b1b" stroke-width="2"/><line x1="179" y1="672" x2="179" y2="680" stroke="#1b1b1b" stroke-width="2"/><text x="32" y="668" font-size="11" fill="#1b1b1b">5 m  ·  16 ft</text></g><g class="legend"><line x1="770" y1="624" x2="798" y2="624" stroke="#1b1b1b" stroke-width="2"/><text x="804" y="628" font-size="11" fill="#1b1b1b">surveyed — 0</text><line x1="770" y1="641" x2="798" y2="641" stroke="#1b1b1b" stroke-width="2" stroke-dasharray="10 5"/><text x="804" y="645" font-size="11" fill="#1b1b1b">described — 4</text><line x1="770" y1="658" x2="798" y2="658" stroke="#1b1b1b" stroke-width="2" stroke-dasharray="2 5"/><text x="804" y="662" font-size="11" fill="#1b1b1b">assumed — 0</text></g><g class="assay-key"><circle cx="32" cy="654" r="4" fill="#b8860b"/><text x="41" y="657" font-size="10" fill="#1b1b1b">representative</text><circle cx="140" cy="654" r="4" fill="none" stroke="#b8860b" stroke-width="1.4" stroke-dasharray="2 2"/><text x="149" y="657" font-size="10" fill="#1b1b1b">selected sample</text></g></svg>