<svg xmlns="http://www.w3.org/2000/svg" viewBox="0 0 960 700" width="960" height="700" role="img" aria-label="Longitudinal section"><rect width="960" height="700" fill="#ffffff"/><text x="32" y="28" font-size="16" font-family="Georgia,serif" fill="#1b1b1b">Longitudinal section</text><text x="32" y="46" font-size="11" fill="#7a7a7a">Bluster mine — workings digitised from a written description, not a survey · looking along 180°</text><line x1="36" y1="348.94" x2="924" y2="348.94" stroke="#7a7a7a" stroke-width="1" stroke-dasharray="4 4"/><text x="38" y="344.94" font-size="10" fill="#7a7a7a">adit level · 2626.34 m</text><polyline points="480,351.06 56,348.94" fill="none" stroke="#ffaa28" stroke-width="2.2" stroke-linejoin="round" stroke-dasharray="10 5"/><polyline points="480,351.06 904,348.94" fill="none" stroke="#ffaa28" stroke-width="2.2" stroke-linejoin="round" stroke-dasharray="10 5"/><g class="assays"><circle cx="268" cy="350" r="4" fill="#b8860b" stroke="#b8860b" stroke-width="1.4"/><text x="275" y="353" font-size="9" fill="#b8860b">21 USD</text><circle cx="692" cy="350" r="4" fill="#b8860b" stroke="#b8860b" stroke-width="1.4"/><text x="699" y="353" font-size="9" fill="#b8860b">40 USD</text></g><g class="scale"><line x1="32" y1="676" x2="398.07" y2="676" stroke="#1b1b1b" stroke-width="2"/><line x1="32" y1="672" x2="32" y2="680" stroke="#1b1b1b" stroke-width="2"/><line x1="398.07" y1="672" x2="398.07" y2="680" stroke="#1b1b1b" stroke-width="2"/><text x="32" y="668" font-size="11" fill="#1b1b1b">100 m  ·  330 ft</text></g><g class="legend"><line x1="770" y1="624" x2="798" y2="624" stroke="#1b1b1b" stroke-width="2"/><text x="804" y="628" font-size="11" fill="#1b1b1b">surveyed — 0</text><line x1="770" y1="641" x2="798" y2="641" stroke="#1b1b1b" stroke-width="2" stroke-dasharray="10 5"/><text x="804" y="645" font-size="11" fill="#1b1b1b">described — 2</text><line x1="770" y1="658" x2="798" y2="658" stroke="#1b1b1b" stroke-width="2" stroke-dasharray="2 5"/><text x="804" y="662" font-size="11" fill="#1b1b1b">assumed — 0</text></g><g class="assay-key"><circle cx="32" cy="654" r="4" fill="#b8860b"/><text x="41" y="657" font-size="10" fill="#1b1b1b">representative</text><circle cx="140" cy="654" r="4" fill="none" stroke="#b8860b" stroke-width="1.4" stroke-dasharray="2 2"/><text x="149" y="657" font-size="10" fill="#1b1b1b">selected sample</text></g></svg>