999
nw-mineral-monitor geomodel DXF R12 export
  0
SECTION
  2
HEADER
  9
$ACADVER
  1
AC1009
  9
$INSUNITS
 70
6
  9
$EXTMIN
 10
404040.9850870685
 20
4489265.480217282
 30
1969.1583783939282
  9
$EXTMAX
 10
404201.00508706854
 20
4489384.01959808
 30
1969.996578393928
  0
ENDSEC
  0
SECTION
  2
TABLES
  0
TABLE
  2
LTYPE
 70
1
  0
LTYPE
  2
CONTINUOUS
 70
0
  3
Solid line
 72
65
 73
0
 40
0.0
  0
ENDTAB
  0
TABLE
  2
LAYER
 70
2
  0
LAYER
  2
0
 70
0
 62
7
  6
CONTINUOUS
  0
LAYER
  2
workings_from_description
 70
0
 62
2
  6
CONTINUOUS
  0
ENDTAB
  0
ENDSEC
  0
SECTION
  2
ENTITIES
  0
POLYLINE
  8
workings_from_description
 66
1
 10
0.0
 20
0.0
 30
0.0
 70
8
  0
VERTEX
  8
workings_from_description
 10
404040.9850870685
 20
4489384.01959808
 30
1969.1583783939282
 70
32
  0
VERTEX
  8
workings_from_description
 10
404201.00508706854
 20
4489384.01959808
 30
1969.958478393928
 70
32
  0
SEQEND
  8
workings_from_description
  0
POLYLINE
  8
workings_from_description
 66
1
 10
0.0
 20
0.0
 30
0.0
 70
8
  0
VERTEX
  8
workings_from_description
 10
404040.9850870685
 20
4489384.01959808
 30
1969.1583783939282
 70
32
  0
VERTEX
  8
workings_from_description
 10
404159.52446786663
 20
4489265.480217282
 30
1969.996578393928
 70
32
  0
SEQEND
  8
workings_from_description
  0
ENDSEC
  0
EOF
