<svg xmlns="http://www.w3.org/2000/svg" viewBox="0 0 960 700" width="960" height="700" role="img" aria-label="Longitudinal section"><rect width="960" height="700" fill="#ffffff"/><text x="32" y="28" font-size="16" font-family="Georgia,serif" fill="#1b1b1b">Longitudinal section</text><text x="32" y="46" font-size="11" fill="#7a7a7a">Montgomery-Shoshone mine (bonanza ore above 200-foot level) — workings digitised from a written description, not a survey · looking along 000°</text><line x1="36" y1="89.79" x2="924" y2="89.79" stroke="#7a7a7a" stroke-width="1" stroke-dasharray="4 4"/><text x="38" y="85.79" font-size="10" fill="#7a7a7a">50 level · 1212.1 m</text><line x1="36" y1="191.17" x2="924" y2="191.17" stroke="#7a7a7a" stroke-width="1" stroke-dasharray="4 4"/><text x="38" y="187.17" font-size="10" fill="#7a7a7a">200 level · 1166.38 m</text><line x1="36" y1="258.76" x2="924" y2="258.76" stroke="#7a7a7a" stroke-width="1" stroke-dasharray="4 4"/><text x="38" y="254.76" font-size="10" fill="#7a7a7a">300 level · 1135.9 m</text><line x1="36" y1="326.34" x2="924" y2="326.34" stroke="#7a7a7a" stroke-width="1" stroke-dasharray="4 4"/><text x="38" y="322.34" font-size="10" fill="#7a7a7a">400 level · 1105.42 m</text><line x1="36" y1="393.93" x2="924" y2="393.93" stroke="#7a7a7a" stroke-width="1" stroke-dasharray="4 4"/><text x="38" y="389.93" font-size="10" fill="#7a7a7a">500 level · 1074.94 m</text><line x1="36" y1="461.52" x2="924" y2="461.52" stroke="#7a7a7a" stroke-width="1" stroke-dasharray="4 4"/><text x="38" y="457.52" font-size="10" fill="#7a7a7a">600 level · 1044.46 m</text><polyline points="480,56 480,596.69" fill="none" stroke="#ff5050" stroke-width="2.2" stroke-linejoin="round" stroke-dasharray="10 5"/><polyline points="480,56 480,644" fill="none" stroke="#ff5050" stroke-width="2.2" stroke-linejoin="round" stroke-dasharray="10 5"/><g class="scale"><line x1="32" y1="676" x2="43.09" y2="676" stroke="#1b1b1b" stroke-width="2"/><line x1="32" y1="672" x2="32" y2="680" stroke="#1b1b1b" stroke-width="2"/><line x1="43.09" y1="672" x2="43.09" y2="680" stroke="#1b1b1b" stroke-width="2"/><text x="32" y="668" font-size="11" fill="#1b1b1b">5 m  ·  16 ft</text></g><g class="legend"><line x1="770" y1="624" x2="798" y2="624" stroke="#1b1b1b" stroke-width="2"/><text x="804" y="628" font-size="11" fill="#1b1b1b">surveyed — 0</text><line x1="770" y1="641" x2="798" y2="641" stroke="#1b1b1b" stroke-width="2" stroke-dasharray="10 5"/><text x="804" y="645" font-size="11" fill="#1b1b1b">described — 2</text><line x1="770" y1="658" x2="798" y2="658" stroke="#1b1b1b" stroke-width="2" stroke-dasharray="2 5"/><text x="804" y="662" font-size="11" fill="#1b1b1b">assumed — 0</text></g></svg>